<svg width="21" height="21" viewBox="0 0 21 21" fill="none" xmlns="http://www.w3.org/2000/svg">
<path d="M8.26106 12.7302C7.68606 12.1562 7.33606 11.3762 7.33606 10.5012C7.33606 8.7482 8.74806 7.33521 10.5001 7.33521C11.3671 7.33521 12.1651 7.68621 12.7301 8.26021" stroke="#7C69F4" stroke-width="1.5" stroke-linecap="round" stroke-linejoin="round"/>
<path d="M13.6052 11.0623C13.3732 12.3523 12.3572 13.3703 11.0682 13.6043" stroke="#7C69F4" stroke-width="1.5" stroke-linecap="round" stroke-linejoin="round"/>
<path d="M5.155 15.8357C3.568 14.5897 2.224 12.7697 1.25 10.5007C2.234 8.22169 3.587 6.39169 5.184 5.13569C6.771 3.87969 8.602 3.19769 10.5 3.19769C12.409 3.19769 14.239 3.88969 15.836 5.15469" stroke="#7C69F4" stroke-width="1.5" stroke-linecap="round" stroke-linejoin="round"/>
<path d="M17.948 7.35422C18.636 8.26822 19.241 9.32322 19.75 10.5002C17.783 15.0572 14.307 17.8022 10.5 17.8022C9.63702 17.8022 8.78602 17.6622 7.96802 17.3892" stroke="#7C69F4" stroke-width="1.5" stroke-linecap="round" stroke-linejoin="round"/>
<path d="M18.3874 2.61301L2.6134 18.387" stroke="#7C69F4" stroke-width="1.5" stroke-linecap="round" stroke-linejoin="round"/>
</svg>
