<svg width="147" height="149" viewBox="0 0 147 149" fill="none" xmlns="http://www.w3.org/2000/svg">
<path d="M103.844 26.9836L106.285 103.013L111.152 127.286L115.477 125.776L116.565 24.5467L127.122 21.839L107.716 2.01204L93.0081 26.8672L103.844 26.9836Z" fill="url(#paint0_linear_2520_24)"/>
<path d="M42.4534 143.031L22.4107 148.167C22.1194 148.242 19.8067 146.336 19.7134 145.972L3.45453 70.7465C3.37989 70.4552 2.68792 68.3565 2.97918 68.2819L29.8479 62.4605C29.8479 62.4605 37.4744 61.1638 41.4192 62.3256C43.8367 63.0376 48.9215 64.424 49.8408 67.5957C50.8934 71.2268 52.1307 89.7344 52.4428 93.6498C52.5377 94.8397 40.8861 99.1391 40.8476 101.046C40.8091 102.953 48.2832 103.8 48.2832 103.8C48.2832 103.8 54.5644 104.845 55.2223 105.335C57.1515 107.867 60.4204 113.662 61.2227 116.793C62.333 121.125 63.7481 127.211 62.948 129.3C61.7507 133.409 59.3663 135.139 56.3851 138.192C53.3947 141.209 46.7859 141.921 42.4534 143.031ZM27.6042 78.0457L19.0847 80.2289L23.5911 97.814L32.1106 95.6308C34.6956 94.9684 36.5558 93.5217 37.6912 91.2908C38.8174 89.0234 39.1052 86.8157 38.5547 84.6677C37.9483 82.3011 36.5655 80.4633 34.4065 79.1543C32.2382 77.8088 29.9707 77.4393 27.6042 78.0457ZM33.8884 109.608L27.0619 111.358L32.0189 131.155L38.9546 129.378C41.6488 128.688 43.7088 127.112 45.1346 124.652C46.5604 122.191 46.9281 119.614 46.2377 116.92C45.5473 114.225 43.99 112.161 41.5659 110.726C39.1418 109.29 36.5826 108.918 33.8884 109.608Z" fill="url(#paint1_linear_2520_24)"/>
<path d="M56.2864 98.0025L53.3182 66.0418L74.0012 115.703L70.4566 53.3491L83.7013 50.4486L103.638 104.179L109.06 127.832L101.612 128.081L80.785 80.3151L83.4882 130.394L71.4305 133.238L57.5161 103.477L56.2864 98.0025Z" fill="url(#paint2_linear_2520_24)"/>
<defs>
<linearGradient id="paint0_linear_2520_24" x1="123.759" y1="6.49577" x2="91.5313" y2="121.802" gradientUnits="userSpaceOnUse">
<stop stop-color="#C54FDF"/>
<stop offset="1" stop-color="#6153FA"/>
</linearGradient>
<linearGradient id="paint1_linear_2520_24" x1="23.381" y1="63.0537" x2="43.8397" y2="142.889" gradientUnits="userSpaceOnUse">
<stop stop-color="#C54FE0"/>
<stop offset="1" stop-color="#6153FA"/>
</linearGradient>
<linearGradient id="paint2_linear_2520_24" x1="93.422" y1="53.1655" x2="71.0702" y2="133.137" gradientUnits="userSpaceOnUse">
<stop stop-color="#C54FDF"/>
<stop offset="1" stop-color="#6153FA"/>
</linearGradient>
</defs>
</svg>
