<svg width="28" height="28" viewBox="0 0 28 28" fill="none" xmlns="http://www.w3.org/2000/svg">
<path d="M14.8758 28H13.1258C12.784 27.9579 12.4417 27.9213 12.101 27.8726C9.33443 27.4772 6.88283 26.3786 4.78561 24.5291C2.33183 22.3641 0.798969 19.6665 0.218746 16.4401C0.125779 15.9222 0.072733 15.3972 0 14.8755V13.1256C0.040468 12.7925 0.0754679 12.4584 0.121951 12.1265C0.522256 9.27956 1.66739 6.77114 3.59782 4.6406C5.76012 2.25358 8.4332 0.763408 11.6154 0.211086C12.1158 0.124683 12.6216 0.0694504 13.1247 0H14.8747C14.9436 0.0196924 15.0138 0.0346745 15.0847 0.0448422C17.1989 0.204523 19.184 0.796219 21.0007 1.88227C24.709 4.09867 26.9867 7.33221 27.7851 11.5878C27.8802 12.0959 27.9295 12.6126 28 13.1256V14.8755C27.9801 14.9448 27.9649 15.0153 27.9546 15.0866C27.7692 17.4966 27.0249 19.7201 25.6704 21.7205C23.4392 25.0186 20.3598 27.0507 16.4382 27.7824C15.9225 27.8786 15.397 27.93 14.8758 28ZM20.9914 9.45072C20.9799 8.76278 20.7355 8.48936 20.0568 8.53748C19.7036 8.56495 19.3565 8.64589 19.0276 8.77755C16.6761 9.7072 14.3191 10.6226 11.9933 11.6124C9.80145 12.5459 7.64571 13.5631 5.47739 14.5496C5.25865 14.6491 4.97865 14.7421 4.9885 15.039C4.99834 15.3234 5.26193 15.4426 5.48833 15.5252C6.36605 15.8473 7.24158 16.1814 8.13898 16.4412C8.88326 16.6544 9.61552 16.5401 10.2789 16.0895C12.0722 14.8744 13.8701 13.6657 15.6726 12.4633C15.9533 12.2782 16.2439 12.1087 16.5432 11.9553C16.6258 11.9127 16.7466 11.9422 16.8494 11.9384C16.8496 12.0502 16.8397 12.1619 16.8199 12.2719C16.803 12.3359 16.7362 12.389 16.6859 12.4409C16.4382 12.6952 16.197 12.9572 15.9378 13.2C14.8074 14.2587 13.6661 15.3059 12.5429 16.3717C12.3326 16.5718 12.1581 16.8066 12.0272 17.0657C11.7926 17.5338 11.9129 17.9013 12.346 18.196C13.9866 19.3123 15.629 20.427 17.2733 21.54C17.3777 21.6126 17.4919 21.6702 17.6123 21.7112C18.3741 21.9578 19.1042 21.4378 19.248 20.5628C19.6395 18.1829 20.047 15.8052 20.4265 13.4242C20.637 12.103 20.8044 10.7752 20.9914 9.45072Z" fill="url(#paint0_linear_2520_40)"/>
<defs>
<linearGradient id="paint0_linear_2520_40" x1="29.0385" y1="15.5306" x2="-0.464831" y2="13.9994" gradientUnits="userSpaceOnUse">
<stop stop-color="#2FA6DA"/>
<stop offset="1" stop-color="#239BCD"/>
</linearGradient>
</defs>
</svg>
